# xmcd CD database file
#
# Track frame offsets:
#	150
#	89497
#	120815
#	133865
#	151139
#
# Disc length: 2557 seconds
#
# Revision: 0
# Processed by: cddbd v1.5.2PL0 Copyright (c) Steve Scherf et al.
# Submitted via: CDex 1.79
#
DISCID=3409fb05
DTITLE=Barbara Thompson's Paraphernalia - Wilde Tales
DYEAR=1980
DGENRE=Jazz
TTITLE0=The Selfish Giant
TTITLE1=Late Again (Colin Dudman)
TTITLE2=Pipe Dream
TTITLE3=Frankfurt Fayre
TTITLE4=Cacion Sin Nombre
EXTD=YEAR: 1980
EXTT0=
EXTT1=
EXTT2=
EXTT3=
EXTT4=
PLAYORDER=
